<?xml version="1.0" standalone="no"?><!DOCTYPE svg PUBLIC "-//W3C//DTD SVG 1.1//EN" "http://www.w3.org/Graphics/SVG/1.1/DTD/svg11.dtd"><svg t="1786008810427" class="icon" viewBox="0 0 1024 1024" version="1.1" xmlns="http://www.w3.org/2000/svg" p-id="3877" xmlns:xlink="http://www.w3.org/1999/xlink" width="200" height="200"><path d="M890.368 431.1552a362.8544 362.8544 0 0 1-210.6368-66.2016c0 94.5152 0 188.9792 1.1776 283.4944 0 12.6464 0.6144 25.2928-0.5632 37.888a307.2 307.2 0 0 1-40.96 131.2256 288.2048 288.2048 0 0 1-79.4624 89.088A256 256 0 0 1 414.72 956.0064a308.7872 308.7872 0 0 1-78.2336-6.6048A282.112 282.112 0 0 1 235.52 905.472c-0.6144-0.6144-1.792-1.2288-1.792-1.8432a272.64 272.64 0 0 1-79.4624-86.6816A281.0368 281.0368 0 0 1 249.344 433.5616 282.112 282.112 0 0 1 434.7392 394.24v35.84c0.6144 15.0528 0 30.1056 0.6144 44.544v76.4416a107.776 107.776 0 0 0-60.16-1.792 155.8528 155.8528 0 0 0-65.024 31.2832 108.4928 108.4928 0 0 0-27.6992 34.304 133.9392 133.9392 0 0 0-13.2608 73.4208 129.1776 129.1776 0 0 0 28.928 66.2528 152.1664 152.1664 0 0 0 38.5024 31.8976 127.6928 127.6928 0 0 0 187.8016-111.36V287.8976c0.6144-74.0352 0-148.0704 0.6144-222.1056h152.8832a171.264 171.264 0 0 0 3.584 39.1168h0.6144a231.1168 231.1168 0 0 0 22.272 62.0032 187.5968 187.5968 0 0 0 67.4304 74.6496c1.792 1.1776 2.9696 3.0208 4.8128 4.1984a212.5824 212.5824 0 0 0 69.7856 28.3136 272.5888 272.5888 0 0 0 43.9296 4.8128z m0 0" fill="#6C6CEA" p-id="3878"></path><path d="M836.7104 336.5376a536.7808 536.7808 0 0 0-4.096-65.8432A221.6448 221.6448 0 0 1 776.6528 245.76c-1.8432-1.1776-3.0208-3.0208-4.8128-4.1984a187.5968 187.5968 0 0 1-67.4304-74.6496 231.1168 231.1168 0 0 1-22.272-62.0032h-0.6144a171.264 171.264 0 0 1-3.584-39.1168h-152.8832c-0.6144 74.0352 0 148.0704-0.6144 222.1056v387.6352a127.6928 127.6928 0 0 1-187.8016 111.36 152.1664 152.1664 0 0 1-38.5024-31.8976 129.1776 129.1776 0 0 1-28.928-66.2528 133.9392 133.9392 0 0 1 13.2608-73.4208 109.2096 109.2096 0 0 1 27.6992-34.304 155.9552 155.9552 0 0 1 64.9728-31.2832 107.9808 107.9808 0 0 1 60.2112 1.792V475.0848c-0.6144-14.4384 0-29.4912-0.6144-44.544V394.24a282.112 282.112 0 0 0-185.3952 39.3216 277.4528 277.4528 0 0 0-93.2864 93.2864 282.2656 282.2656 0 0 0-1.792 290.0992 273.6128 273.6128 0 0 0 16.1792 24.7296 525.056 525.056 0 0 0 506.88-128.4096c1.4848-8.9088 2.6624-17.8688 3.2768-26.9312 1.1776-12.5952 0.5632-25.2416 0.5632-37.888-1.1776-94.5152-1.1776-188.9792-1.1776-283.4944a363.8272 363.8272 0 0 0 149.2992 61.44 527.872 527.872 0 0 0 7.424-89.856z" fill="#757BF2" p-id="3879"></path><path d="M743.7312 220.16a201.8304 201.8304 0 0 1-39.3216-52.992 231.1168 231.1168 0 0 1-22.272-62.0032h-0.6144a171.264 171.264 0 0 1-3.584-39.1168h-152.8832c-0.6144 74.0352 0 148.0704-0.6144 222.1056v326.7584a526.2336 526.2336 0 0 0 155.2896-174.08V364.9536c8.9088 6.2976 18.176 12.032 27.648 17.4592a521.5232 521.5232 0 0 0 36.352-162.2528zM273.7152 709.4272a125.3376 125.3376 0 0 1-4.5056-20.48 133.9392 133.9392 0 0 1 13.2608-73.4208 109.2096 109.2096 0 0 1 27.6992-34.304 155.9552 155.9552 0 0 1 64.9728-31.2832 107.9808 107.9808 0 0 1 60.2112 1.792V475.0848c-0.6144-14.4384 0-29.4912-0.6144-44.544V394.24a282.112 282.112 0 0 0-185.3952 39.3216 277.4528 277.4528 0 0 0-93.2864 93.2864 284.3136 284.3136 0 0 0-39.68 174.9504 525.8752 525.8752 0 0 0 103.8336 10.24c18.0736 0.0512 35.7888-0.8704 53.504-2.6112z" fill="#8486F8" p-id="3880"></path><path d="M435.2 458.8032c0-9.3184 0-18.7904-0.3584-28.2624V394.24a282.112 282.112 0 0 0-185.4976 39.3216 277.4528 277.4528 0 0 0-93.2864 93.2864 288.1536 288.1536 0 0 0-20.48 40.4992A521.8304 521.8304 0 0 0 435.2 458.8032zM639.0272 65.792h-113.9712c-0.6144 74.0352 0 148.0704-0.6144 222.1056v83.2a522.24 522.24 0 0 0 114.5856-305.3056z" fill="#8D92F8" p-id="3881"></path></svg>